<svg height="100%" width="100%" id="svg" viewBox="0 0 1440 600" xmlns="http://www.w3.org/2000/svg" class="transition duration-300 ease-in-out delay-150"><defs><linearGradient id="gradient"><stop offset="5%" stop-color="#3275e944"></stop><stop offset="95%" stop-color="#3275e944"></stop></linearGradient></defs><path d="M 0,600 C 0,600 0,120 0,120 C 124.64285714285714,134.10714285714286 249.28571428571428,148.21428571428572 379,142 C 508.7142857142857,135.78571428571428 643.5,109.25000000000001 774,95 C 904.5,80.74999999999999 1030.7142857142858,78.78571428571428 1141,85 C 1251.2857142857142,91.21428571428572 1345.642857142857,105.60714285714286 1440,120 C 1440,120 1440,600 1440,600 Z" stroke="none" stroke-width="0" fill="url(#gradient)" class="transition-all duration-300 ease-in-out delay-150" transform="rotate(-180 720 300)"></path><defs><linearGradient id="gradient"><stop offset="5%" stop-color="#3275e966"></stop><stop offset="95%" stop-color="#3275e966"></stop></linearGradient></defs><path d="M 0,600 C 0,600 0,240 0,240 C 86.25,240.25 172.5,240.5 313,230 C 453.5,219.5 648.25,198.25 780,207 C 911.75,215.75 980.5,254.5 1080,265 C 1179.5,275.5 1309.75,257.75 1440,240 C 1440,240 1440,600 1440,600 Z" stroke="none" stroke-width="0" fill="url(#gradient)" class="transition-all duration-300 ease-in-out delay-150" transform="rotate(-180 720 300)"></path><defs><linearGradient id="gradient"><stop offset="5%" stop-color="#3275e988"></stop><stop offset="95%" stop-color="#3275e988"></stop></linearGradient></defs><path d="M 0,600 C 0,600 0,360 0,360 C 111.03571428571428,346.2857142857143 222.07142857142856,332.57142857142856 356,328 C 489.92857142857144,323.42857142857144 646.75,327.99999999999994 761,337 C 875.25,346.00000000000006 946.9285714285716,359.42857142857144 1053,364 C 1159.0714285714284,368.57142857142856 1299.5357142857142,364.2857142857143 1440,360 C 1440,360 1440,600 1440,600 Z" stroke="none" stroke-width="0" fill="url(#gradient)" class="transition-all duration-300 ease-in-out delay-150" transform="rotate(-180 720 300)"></path><defs><linearGradient id="gradient"><stop offset="5%" stop-color="#3275e9ff"></stop><stop offset="95%" stop-color="#3275e9ff"></stop></linearGradient></defs><path d="M 0,600 C 0,600 0,480 0,480 C 135.39285714285717,488.1071428571429 270.78571428571433,496.2142857142857 401,485 C 531.2142857142857,473.7857142857143 656.25,443.25000000000006 753,453 C 849.75,462.74999999999994 918.2142857142858,512.7857142857143 1028,524 C 1137.7857142857142,535.2142857142857 1288.892857142857,507.60714285714283 1440,480 C 1440,480 1440,600 1440,600 Z" stroke="none" stroke-width="0" fill="url(#gradient)" class="transition-all duration-300 ease-in-out delay-150" transform="rotate(-180 720 300)"></path></svg>