<svg height="100%" width="100%" id="svg" viewBox="0 0 1440 700" xmlns="http://www.w3.org/2000/svg" class="transition duration-300 ease-in-out delay-150">
    <defs>
        <linearGradient id="gradient">
            <stop offset="5%" stop-color="#0084ffaa"></stop>
            <stop offset="95%" stop-color="#0084ff"></stop>
        </linearGradient>
    </defs>
    <path d="M 0,700 C 0,700 0,175 0,175 C 87.82892476812094,198.09653040192373 175.65784953624188,221.19306080384746 235,225 C 294.3421504637581,228.80693919615254 325.1975266231535,213.32428718653384 393,188 C 460.8024733768465,162.67571281346616 565.5520439711439,127.50979045001719 644,114 C 722.4479560288561,100.49020954998281 774.5942974922708,108.63655101339748 836,140 C 897.4057025077292,171.36344898660252 968.0707660597732,225.944005496393 1043,229 C 1117.9292339402268,232.055994503607 1197.1226382686364,183.58742700103056 1264,166 C 1330.8773617313636,148.41257299896944 1385.4386808656818,161.70628649948472 1440,175 C 1440,175 1440,700 1440,700 Z" stroke="none" stroke-width="0" fill="url(#gradient)" class="transition-all duration-300 ease-in-out delay-150"></path>
    <defs>
        <linearGradient id="gradient">
            <stop offset="5%" stop-color="#0084ffbb"></stop>
            <stop offset="95%" stop-color="#0084ff88"></stop>
        </linearGradient>
    </defs>
    <path d="M 0,700 C 0,700 0,350 0,350 C 74.24321538990037,333.78632772243213 148.48643077980074,317.5726554448643 217,318 C 285.51356922019926,318.4273445551357 348.2974922706973,335.49570594297495 418,352 C 487.7025077293027,368.50429405702505 564.3236001374099,384.444520783236 624,370 C 683.6763998625901,355.555479216764 726.4081071796633,310.7262109240811 788,322 C 849.5918928203367,333.2737890759189 930.0439711439367,400.65063552043966 1002,411 C 1073.9560288560633,421.34936447956034 1137.4160082445896,374.6712469941601 1209,355 C 1280.5839917554104,335.3287530058399 1360.2919958777052,342.66437650291994 1440,350 C 1440,350 1440,700 1440,700 Z" stroke="none" stroke-width="0" fill="url(#gradient)" class="transition-all duration-300 ease-in-out delay-150"></path>
    <defs>
        <linearGradient id="gradient">
            <stop offset="5%" stop-color="#0084ff"></stop>
            <stop offset="95%" stop-color="#0084ff"></stop>
        </linearGradient>
    </defs>
    <path d="M 0,700 C 0,700 0,525 0,525 C 55.91205771212641,517.3558914462384 111.82411542425282,509.7117828924768 170,512 C 228.17588457574718,514.2882171075232 288.6155960151151,526.5087598763312 376,545 C 463.3844039848849,563.4912401236688 577.7135005152869,588.2531776021985 646,560 C 714.2864994847131,531.7468223978015 736.5304019237376,450.4785297148746 786,462 C 835.4695980762624,473.5214702851254 912.164891789763,577.832703538303 999,587 C 1085.835108210237,596.167296461697 1182.8100309172107,510.19065613191344 1258,484 C 1333.1899690827893,457.80934386808656 1386.5949845413948,491.4046719340433 1440,525 C 1440,525 1440,700 1440,700 Z" stroke="none" stroke-width="0" fill="url(#gradient)" class="transition-all duration-300 ease-in-out delay-150"></path>
</svg>